<?xml version="1.0" encoding="iso-8859-1"?>
<!-- Generator: Adobe Illustrator 19.0.0, SVG Export Plug-In . SVG Version: 6.00 Build 0)  -->
<svg version="1.1" id="Layer_1" xmlns="http://www.w3.org/2000/svg" xmlns:xlink="http://www.w3.org/1999/xlink" x="0px" y="0px"
	 viewBox="0 0 511.997 511.997" style="enable-background:new 0 0 511.997 511.997;" xml:space="preserve">
<g>
	<g>
		<path d="M214.518,221.629h-35.556c-4.91,0-8.889,3.98-8.889,8.889c0,4.909,3.979,8.889,8.889,8.889h35.556
			c4.91,0,8.889-3.98,8.889-8.889C223.407,225.609,219.429,221.629,214.518,221.629z"/>
	</g>
</g>
<g>
	<g>
		<path d="M333.037,221.629h-35.556c-4.91,0-8.889,3.98-8.889,8.889c0,4.909,3.979,8.889,8.889,8.889h35.556
			c4.91,0,8.889-3.98,8.889-8.889C341.926,225.609,337.946,221.629,333.037,221.629z"/>
	</g>
</g>
<g>
	<g>
		<path d="M256,239.407c-14.705,0-26.667,11.962-26.667,26.667c0,4.909,3.98,8.889,8.889,8.889h35.556
			c4.909,0,8.889-3.98,8.889-8.889C282.667,251.369,270.704,239.407,256,239.407z"/>
	</g>
</g>
<g>
	<g>
		<path d="M214.518,186.073h-35.556c-4.909,0-8.889,3.98-8.889,8.889s3.98,8.889,8.889,8.889h35.556c4.909,0,8.889-3.98,8.889-8.889
			S219.427,186.073,214.518,186.073z"/>
	</g>
</g>
<g>
	<g>
		<path d="M448.167,168.887c-1.774-17.706-9.189-34.388-21.341-47.667c-25.437-27.801-64.323-66.077-105.124-90.54
			C290.854,12.183,255.189,1.328,221.277,0.112c-32.855-1.18-60.934,6.988-77.037,22.402
			c-12.569,12.034-18.918,24.295-18.869,36.443c0.017,3.974,0.723,7.461,1.735,10.424c-25.582,9.08-44,25.798-54.833,49.815
			c-2.963,6.566-5.217,13.574-6.705,20.827c-0.986,4.809,2.114,9.506,6.923,10.494c4.81,0.973,9.508-2.114,10.492-6.924
			c1.223-5.969,3.072-11.718,5.495-17.087c9.998-22.167,28.191-36.714,54.074-43.234c3.209-0.809,5.837-3.215,6.606-6.436
			c0.763-3.193-0.168-6.428-2.62-8.6c-0.484-0.524-3.482-4.006-3.386-9.683c0.115-6.905,4.743-14.927,13.383-23.198
			c25.21-24.132,95.487-25.728,156.026,10.57c41.016,24.591,80.979,65.247,101.15,87.293c9.166,10.016,14.91,22.492,16.589,35.776
			c-19.905,2.991-37.153,15.398-46.331,33.861c-2.185,4.397-0.393,9.732,4.002,11.917c1.271,0.632,2.62,0.932,3.95,0.932
			c3.268,0,6.413-1.81,7.967-4.934c7.573-15.234,22.83-24.698,39.816-24.698c24.507,0,44.445,19.937,44.445,44.445
			c0,23.031-17.608,42.022-40.07,44.227c-0.681-16.079-5.116-31.835-13.043-46.171c0.89-3.968,4.435-6.944,8.668-6.944
			c4.902,0,8.889,3.987,8.889,8.889c0,4.91,3.98,8.889,8.889,8.889c4.909,0,8.889-3.979,8.889-8.889
			c0-14.703-11.962-26.667-26.667-26.667s-26.667,11.963-26.667,26.667c0,0.044,0.006,0.087,0.007,0.13
			c0.002,0.184,0.014,0.365,0.027,0.545c0.008,0.115,0.015,0.23,0.028,0.345c0.019,0.169,0.047,0.337,0.077,0.503
			c0.023,0.127,0.043,0.254,0.07,0.38c0.032,0.145,0.071,0.286,0.11,0.428c0.04,0.146,0.078,0.292,0.126,0.436
			c0.039,0.118,0.084,0.233,0.128,0.35c0.062,0.162,0.123,0.326,0.194,0.486c0.045,0.1,0.095,0.198,0.142,0.296
			c0.083,0.168,0.168,0.337,0.262,0.501c0.02,0.036,0.036,0.073,0.057,0.109c8.658,14.698,12.821,31.296,12.049,48.016
			c-0.004,0.058-0.014,0.115-0.018,0.173c-1.38,28.615-17.124,54.542-42.117,69.358c-31.141,18.461-65.255,29.644-100.001,33.562
			c-3.671,0.352-7.334,0.661-10.971,0.882c-0.474,0.028-0.934,0.104-1.383,0.204c-4.095,0.904-7.084,4.6-6.962,8.92
			c0.005,0.153,0.012,0.306,0.023,0.473c-0.044,2.309-0.964,4.473-2.602,6.111c-1.678,1.678-3.91,2.603-6.285,2.603
			c-2.374,0-4.604-0.924-6.283-2.602c-0.001-0.001-0.002-0.002-0.004-0.004c-1.638-1.638-2.559-3.803-2.6-6.114
			c0.01-0.154,0.018-0.307,0.024-0.462c0.139-4.264-2.757-7.934-6.764-8.915c-0.507-0.125-1.029-0.212-1.567-0.245
			c-4.366-0.273-8.769-0.652-13.179-1.112c-33.988-4.136-67.322-15.232-97.808-33.304c-0.955-0.567-1.914-1.177-3.063-1.922
			c-23.476-15.213-37.708-39.794-39.047-67.437c-0.004-0.07-0.015-0.137-0.02-0.206c-0.768-16.705,3.392-33.292,12.045-47.98
			c0.021-0.036,0.037-0.073,0.057-0.109c0.095-0.165,0.18-0.333,0.262-0.501c0.049-0.098,0.098-0.196,0.142-0.296
			c0.071-0.161,0.134-0.324,0.194-0.486c0.044-0.116,0.089-0.231,0.128-0.35c0.047-0.145,0.087-0.29,0.126-0.436
			c0.039-0.142,0.078-0.283,0.11-0.428c0.027-0.127,0.047-0.254,0.07-0.38c0.028-0.167,0.057-0.333,0.077-0.503
			c0.013-0.115,0.02-0.23,0.028-0.345c0.014-0.181,0.025-0.363,0.027-0.545c0.001-0.044,0.007-0.086,0.007-0.13
			c0-14.703-11.962-26.667-26.667-26.667c-14.705,0-26.667,11.963-26.667,26.667c0,4.91,3.98,8.889,8.889,8.889
			s8.889-3.979,8.889-8.889c0-4.902,3.987-8.889,8.889-8.889c4.233,0,7.778,2.976,8.668,6.944
			c-7.927,14.336-12.36,30.093-13.039,46.171c-22.465-2.199-40.075-21.191-40.075-44.223c0-24.507,19.937-44.445,44.445-44.445
			c16.987,0,32.244,9.463,39.816,24.698c1.502,3.021,4.586,4.932,7.96,4.932c8.532,0,15.91-5.787,17.94-14.072
			c5.039-20.571,15.336-39.319,29.957-54.67c24.346,21.463,55.28,33.186,88.031,33.186c11.641,0,23.051-1.489,34.017-4.362
			c-0.686,4.25,1.793,8.485,6.015,9.858c6.281,2.046,12.744,3.067,19.212,3.067c6.469,0,12.942-1.023,19.237-3.068
			c4.668-1.517,7.225-6.532,5.707-11.2c-1.516-4.67-6.539-7.225-11.2-5.707c-7.22,2.345-14.761,2.804-22.093,1.387
			c13.452-5.553,25.983-13.33,37.13-23.156c10.095,10.636,18.302,23.125,23.956,36.527c1.908,4.523,7.122,6.643,11.646,4.734
			c4.523-1.908,6.643-7.123,4.735-11.646c-7.699-18.247-19.52-35.014-34.184-48.49c-3.513-3.227-8.946-3.108-12.312,0.271
			c-21.844,21.928-50.917,34.004-81.866,34.004c-30.949,0-60.021-12.076-81.866-34.004c-3.366-3.379-8.798-3.499-12.312-0.271
			c-19.205,17.649-32.939,39.992-39.909,64.855c-11.625-15.435-29.778-24.652-49.618-24.652c-34.31,0-62.222,27.914-62.222,62.222
			c0,33.108,25.991,60.259,58.641,62.12c3.902,29.907,20.479,56.154,46.37,72.933c1.326,0.86,2.457,1.579,3.667,2.297
			c12.85,7.617,26.291,14.117,40.167,19.461c-23.635,19.848-40.794,46.567-48.829,76.384c-1.278,4.74,1.53,9.618,6.271,10.895
			c0.774,0.209,1.553,0.308,2.318,0.308c3.921,0,7.508-2.612,8.577-6.579c8.02-29.764,26.351-56.042,51.617-73.994
			c0.073-0.052,0.137-0.111,0.209-0.165c6.797,2.015,13.676,3.762,20.621,5.236v10.099c0,6.458,2.655,12.443,7.137,16.716
			c-3.906,7.775-2.633,17.508,3.847,23.989l36.325,36.324v16.565c0,4.91,3.98,8.889,8.889,8.889s8.889-3.979,8.889-8.889v-16.367
			l36.522-36.522c6.481-6.482,7.754-16.215,3.847-23.989c4.482-4.274,7.137-10.258,7.137-16.716v-10.099
			c6.933-1.473,13.802-3.215,20.587-5.227c25.396,17.963,43.807,44.26,51.86,74.148c1.069,3.967,4.657,6.579,8.577,6.579
			c0.766,0,1.544-0.1,2.318-0.308c4.741-1.278,7.547-6.156,6.271-10.895c-8.043-29.85-25.183-56.542-48.821-76.388
			c13.874-5.343,27.313-11.841,40.16-19.457c27.639-16.383,45.902-44.074,50.036-75.23c32.65-1.861,58.642-29.012,58.642-62.12
			C501.926,199.08,478.486,173.03,448.167,168.887z M217.48,409.517v-6.658c4.335,0.532,8.673,0.981,12.992,1.346
			c0.389,1.285,0.873,2.535,1.453,3.744l-5.339,5.339c-2.274,2.274-4.823,1.567-5.813,1.156
			C219.783,414.033,217.48,412.733,217.48,409.517z M247.011,461.405l-23.754-23.754c-1.156-1.157-1.156-3.036,0-4.192
			c0.279-0.278,0.526-0.575,0.76-0.878c5.587-0.288,10.999-2.583,15.138-6.722l5.364-5.364c0.813,0.389,1.643,0.734,2.491,1.037
			V461.405z M288.741,437.651l-23.951,23.951v-40c0.917-0.32,1.813-0.69,2.689-1.108l5.364,5.364c4.109,4.109,9.47,6.4,15.013,6.716
			l0.885,0.885C289.896,434.615,289.896,436.495,288.741,437.651z M294.519,409.515c0,3.217-2.302,4.518-3.292,4.927
			c-0.991,0.411-3.54,1.118-5.812-1.157l-5.34-5.34c0.572-1.195,1.054-2.431,1.44-3.7c4.324-0.359,8.667-0.804,13.005-1.332V409.515
			z"/>
	</g>
</g>
<g>
	<g>
		<path d="M369.349,480.567c-4.442-22.452-15.383-42.911-31.64-59.167c-3.471-3.47-9.1-3.471-12.57,0.001
			c-3.471,3.471-3.471,9.1,0,12.57c13.756,13.755,23.014,31.061,26.77,50.047c0.838,4.232,4.552,7.164,8.71,7.164
			c0.572,0,1.153-0.056,1.735-0.171C367.169,490.06,370.302,485.383,369.349,480.567z"/>
	</g>
</g>
<g>
	<g>
		<path d="M186.86,421.402c-3.47-3.473-9.099-3.471-12.57-0.001c-16.256,16.256-27.198,36.716-31.64,59.167
			c-0.953,4.815,2.178,9.493,6.995,10.445c0.582,0.116,1.163,0.171,1.735,0.171c4.158,0,7.872-2.932,8.71-7.164
			c3.756-18.986,13.013-36.29,26.77-50.047C190.331,430.5,190.331,424.872,186.86,421.402z"/>
	</g>
</g>
<g>
</g>
<g>
</g>
<g>
</g>
<g>
</g>
<g>
</g>
<g>
</g>
<g>
</g>
<g>
</g>
<g>
</g>
<g>
</g>
<g>
</g>
<g>
</g>
<g>
</g>
<g>
</g>
<g>
</g>
</svg>
